<svg width="20" height="20" viewBox="0 0 20 20" fill="none" xmlns="http://www.w3.org/2000/svg">
<path d="M15.5889 10.244C15.9144 10.5694 15.9144 11.0971 15.5889 11.4225L10.5889 16.4225C10.4326 16.5788 10.2207 16.6666 9.99967 16.6666C9.77866 16.6666 9.5667 16.5788 9.41042 16.4225L4.41042 11.4225C4.08498 11.0971 4.08498 10.5694 4.41042 10.244C4.73586 9.91856 5.26349 9.91856 5.58893 10.244L9.16634 13.8214L9.16634 4.16658C9.16634 3.70635 9.53944 3.33325 9.99967 3.33325C10.4599 3.33325 10.833 3.70635 10.833 4.16659L10.833 13.8214L14.4104 10.244C14.7359 9.91856 15.2635 9.91856 15.5889 10.244Z" fill="white"/>
</svg>
