<svg width="20" height="20" viewBox="0 0 20 20" fill="none" xmlns="http://www.w3.org/2000/svg">
<path d="M10.2438 4.41073C10.5692 4.0853 11.0968 4.0853 11.4223 4.41073L16.4223 9.41074C16.5785 9.56702 16.6663 9.77898 16.6663 9.99999C16.6663 10.221 16.5785 10.433 16.4223 10.5892L11.4223 15.5892C11.0968 15.9147 10.5692 15.9147 10.2438 15.5892C9.91831 15.2638 9.91832 14.7362 10.2438 14.4107L13.8212 10.8333L4.16634 10.8333C3.7061 10.8333 3.33301 10.4602 3.33301 9.99999C3.33301 9.53975 3.7061 9.16666 4.16634 9.16666L13.8212 9.16666L10.2438 5.58925C9.91831 5.26381 9.91831 4.73617 10.2438 4.41073Z" fill="white"/>
</svg>
