<svg width="20" height="20" viewBox="0 0 20 20" fill="none" xmlns="http://www.w3.org/2000/svg">
<path d="M1.66699 3.33332C1.66699 2.41285 2.41318 1.66666 3.33366 1.66666H11.667C12.5875 1.66666 13.3337 2.41285 13.3337 3.33332V6.66666H16.667C17.5875 6.66666 18.3337 7.41285 18.3337 8.33332V16.6667C18.3337 17.5871 17.5875 18.3333 16.667 18.3333H8.33366C7.41318 18.3333 6.66699 17.5871 6.66699 16.6667V13.3333H3.33366C2.41318 13.3333 1.66699 12.5871 1.66699 11.6667V3.33332ZM8.33366 13.3333V16.6667H16.667V8.33332H13.3337V11.6667C13.3337 12.5871 12.5875 13.3333 11.667 13.3333H8.33366ZM11.667 11.6667V3.33332L3.33366 3.33332V11.6667H11.667Z" fill="white"/>
</svg>
