<svg width="20" height="20" viewBox="0 0 20 20" fill="none" xmlns="http://www.w3.org/2000/svg">
<path d="M9.99967 1.66663C10.4599 1.66663 10.833 2.03972 10.833 2.49996V11.3214L12.7438 9.4107C13.0692 9.08527 13.5968 9.08527 13.9223 9.4107C14.2477 9.73614 14.2477 10.2638 13.9223 10.5892L10.5889 13.9225C10.2635 14.248 9.73586 14.248 9.41042 13.9225L6.07709 10.5892C5.75165 10.2638 5.75165 9.73614 6.07709 9.4107C6.40252 9.08527 6.93016 9.08527 7.2556 9.4107L9.16634 11.3214V2.49996C9.16634 2.03972 9.53944 1.66663 9.99967 1.66663ZM4.16634 14.1666C4.62658 14.1666 4.99967 14.5397 4.99967 15V16.6666H14.9997V15C14.9997 14.5397 15.3728 14.1666 15.833 14.1666C16.2932 14.1666 16.6663 14.5397 16.6663 15V16.6666C16.6663 17.5871 15.9201 18.3333 14.9997 18.3333H4.99967C4.0792 18.3333 3.33301 17.5871 3.33301 16.6666V15C3.33301 14.5397 3.7061 14.1666 4.16634 14.1666Z" fill="white"/>
</svg>
