<svg width="20" height="20" viewBox="0 0 20 20" fill="none" xmlns="http://www.w3.org/2000/svg">
<path d="M4.16634 6.47185C4.16634 5.17636 5.57963 4.37617 6.6905 5.0427L12.5708 8.57087C13.6497 9.21821 13.6497 10.7818 12.5708 11.4292L6.6905 14.9574C5.57963 15.6239 4.16634 14.8237 4.16634 13.5282V6.47185ZM11.7133 10L5.83301 6.47185V13.5282L11.7133 10Z" fill="white"/>
<path d="M14.9997 5.00003C14.5394 5.00003 14.1663 5.37312 14.1663 5.83336V14.1667C14.1663 14.6269 14.5394 15 14.9997 15C15.4599 15 15.833 14.6269 15.833 14.1667V5.83336C15.833 5.37312 15.4599 5.00003 14.9997 5.00003Z" fill="white"/>
</svg>
