<svg width="28" height="28" viewBox="0 0 28 28" fill="none" xmlns="http://www.w3.org/2000/svg">
<path d="M5 6C5 4.89543 5.89543 4 7 4H9C10.1046 4 11 4.89543 11 6V22C11 23.1046 10.1046 24 9 24H7C5.89543 24 5 23.1046 5 22V6Z" fill="url(#paint0_linear_1154_3509)"/>
<path d="M17 6C17 4.89543 17.8954 4 19 4H21C22.1046 4 23 4.89543 23 6V22C23 23.1046 22.1046 24 21 24H19C17.8954 24 17 23.1046 17 22V6Z" fill="url(#paint1_linear_1154_3509)"/>
<defs>
<linearGradient id="paint0_linear_1154_3509" x1="24" y1="24" x2="4" y2="4" gradientUnits="userSpaceOnUse">
<stop stop-color="#00AF70"/>
<stop offset="1" stop-color="#00E3E6"/>
</linearGradient>
<linearGradient id="paint1_linear_1154_3509" x1="24" y1="24" x2="4" y2="4" gradientUnits="userSpaceOnUse">
<stop stop-color="#00AF70"/>
<stop offset="1" stop-color="#00E3E6"/>
</linearGradient>
</defs>
</svg>
