<svg width="20" height="20" viewBox="0 0 20 20" fill="none" xmlns="http://www.w3.org/2000/svg">
<path d="M15.8337 6.47185C15.8337 5.17636 14.4204 4.37617 13.3095 5.0427L7.42921 8.57087C6.35031 9.21821 6.35031 10.7818 7.42921 11.4292L13.3095 14.9574C14.4204 15.6239 15.8337 14.8237 15.8337 13.5282V6.47185ZM8.2867 10L14.167 6.47185V13.5282L8.2867 10Z" fill="white"/>
<path d="M5.00033 5.00003C5.46056 5.00003 5.83366 5.37312 5.83366 5.83336V14.1667C5.83366 14.6269 5.46056 15 5.00033 15C4.54009 15 4.16699 14.6269 4.16699 14.1667V5.83336C4.16699 5.37312 4.54009 5.00003 5.00033 5.00003Z" fill="white"/>
</svg>
