<svg width="20" height="20" viewBox="0 0 20 20" fill="none" xmlns="http://www.w3.org/2000/svg">
<path d="M11.1819 1.74288C11.4775 1.87887 11.667 2.17453 11.667 2.49997V17.5C11.667 17.8254 11.4775 18.1211 11.1819 18.2571C10.8862 18.3931 10.5384 18.3445 10.2913 18.1327L4.69206 13.3333H2.50033C2.04009 13.3333 1.66699 12.9602 1.66699 12.5V7.49997C1.66699 7.03973 2.04009 6.66664 2.50033 6.66664H4.69206L10.2913 1.86726C10.5384 1.65546 10.8862 1.60689 11.1819 1.74288ZM10.0003 4.31182L5.54265 8.13269C5.39162 8.26215 5.19925 8.3333 5.00033 8.3333H3.33366V11.6666H5.00033C5.19925 11.6666 5.39162 11.7378 5.54265 11.8673L10.0003 15.6881V4.31182ZM13.5777 7.74405C13.9032 7.41861 14.4308 7.41861 14.7562 7.74405L15.8337 8.82146L16.9111 7.74405C17.2365 7.41861 17.7641 7.41861 18.0896 7.74405C18.415 8.06949 18.415 8.59712 18.0896 8.92256L17.0122 9.99997L18.0896 11.0774C18.415 11.4028 18.415 11.9305 18.0896 12.2559C17.7641 12.5813 17.2365 12.5813 16.9111 12.2559L15.8337 11.1785L14.7562 12.2559C14.4308 12.5813 13.9032 12.5813 13.5777 12.2559C13.2523 11.9305 13.2523 11.4028 13.5777 11.0774L14.6551 9.99997L13.5777 8.92256C13.2523 8.59712 13.2523 8.06949 13.5777 7.74405Z" fill="white"/>
</svg>
